<svg xmlns="http://www.w3.org/2000/svg" viewBox="0 0 151 146" fill="none">
  <rect width="151" height="146" rx="12" fill="#0a0a0a"/>

  <!-- LEFT FIGURE (yellow/amber) -->
  <circle cx="32" cy="22" r="9" fill="#F7C413"/>
  <path d="M32 31 L15 16" stroke="#F7C413" stroke-width="5.5" stroke-linecap="round"/>
  <path d="M32 31 L47 20" stroke="#F7C413" stroke-width="5.5" stroke-linecap="round"/>
  <path d="M32 31 L32 63" stroke="#F7C413" stroke-width="5.5" stroke-linecap="round"/>
  <path d="M32 63 L21 82" stroke="#F7C413" stroke-width="5" stroke-linecap="round"/>
  <path d="M32 63 L41 82" stroke="#F7C413" stroke-width="5" stroke-linecap="round"/>

  <!-- RIGHT FIGURE (green) -->
  <circle cx="119" cy="22" r="9" fill="#0D8944"/>
  <path d="M119 31 L136 16" stroke="#0D8944" stroke-width="5.5" stroke-linecap="round"/>
  <path d="M119 31 L104 20" stroke="#0D8944" stroke-width="5.5" stroke-linecap="round"/>
  <path d="M119 31 L119 63" stroke="#0D8944" stroke-width="5.5" stroke-linecap="round"/>
  <path d="M119 63 L110 82" stroke="#0D8944" stroke-width="5" stroke-linecap="round"/>
  <path d="M119 63 L128 82" stroke="#0D8944" stroke-width="5" stroke-linecap="round"/>

  <!-- CENTER TEARDROP (blue) -->
  <path d="M75.5 8 C75.5 8 94 30 94 52 C94 63.6 85.8 72 75.5 72 C65.2 72 57 63.6 57 52 C57 30 75.5 8 75.5 8Z" fill="#5892CD"/>
  <!-- White 'e' inside teardrop -->
  <text x="75.5" y="62" text-anchor="middle" fill="white" font-size="20" font-weight="700" font-family="Arial, sans-serif">e</text>

  <!-- WETRIALS TEXT -->
  <text x="75.5" y="108" text-anchor="middle" fill="white" font-size="14" font-weight="600" font-family="Arial, sans-serif" letter-spacing="0.5">WeTrials</text>
</svg>
